STARTFONT 2.1
COMMENT Exported by Fony v1.4.7
FONT audiofont_6x12
SIZE 12 75 75
FONTBOUNDINGBOX 17 11 0 -2
STARTPROPERTIES 6
COPYRIGHT "Public domain terminal emulator font.  Share and enjoy."
RESOLUTION_X 75
RESOLUTION_Y 75
FONT_ASCENT 10
FONT_DESCENT 2
DEFAULT_CHAR 0
ENDPROPERTIES
CHARS 256
STARTCHAR 000
ENCODING 0
SWIDTH 504 0
DWIDTH 7 0
BBX 6 7 0 0
BITMAP
A8
04
80
04
80
04
A8
ENDCHAR
STARTCHAR 001
ENCODING 1
SWIDTH 576 0
DWIDTH 8 0
BBX 7 11 0 -1
BITMAP
10
18
94
52
34
18
34
52
94
18
10
ENDCHAR
STARTCHAR 002
ENCODING 2
SWIDTH 792 0
DWIDTH 11 0
BBX 10 11 0 -1
BITMAP
0800
0C00
4A00
2900
9A40
CCC0
9A40
2900
4A00
0C00
0800
ENDCHAR
STARTCHAR 003
ENCODING 3
SWIDTH 1008 0
DWIDTH 14 0
BBX 13 11 0 -1
BITMAP
0A80
2020
0000
8208
0880
2020
0200
0880
0000
0200
0700
ENDCHAR
STARTCHAR 004
ENCODING 4
SWIDTH 1008 0
DWIDTH 14 0
BBX 13 11 0 -1
BITMAP
0F80
3060
4010
8708
18C0
2020
0700
0880
0000
0200
0700
ENDCHAR
STARTCHAR 005
ENCODING 5
SWIDTH 720 0
DWIDTH 10 0
BBX 9 11 0 -1
BITMAP
0800
1C00
0800
4800
EB80
4B80
3B80
0900
0900
0E00
0800
ENDCHAR
STARTCHAR 006
ENCODING 6
SWIDTH 432 0
DWIDTH 6 0
BBX 5 11 0 -1
BITMAP
20
20
F8
00
F8
F8
F8
F8
F8
70
20
ENDCHAR
STARTCHAR 007
ENCODING 7
SWIDTH 1008 0
DWIDTH 14 0
BBX 13 11 0 -1
BITMAP
3FE0
6030
4010
4710
4D90
C898
4D90
4710
4010
4010
7FF0
ENDCHAR
STARTCHAR 008
ENCODING 8
SWIDTH 936 0
DWIDTH 13 0
BBX 11 11 0 -1
BITMAP
0E00
3F80
71C0
64C0
CE60
DB60
CE60
64C0
71C0
3F80
0E00
ENDCHAR
STARTCHAR 009
ENCODING 9
SWIDTH 144 0
DWIDTH 2 0
BBX 0 0 0 0
BITMAP
ENDCHAR
STARTCHAR 010
ENCODING 10
SWIDTH 144 0
DWIDTH 2 0
BBX 0 0 0 0
BITMAP
ENDCHAR
STARTCHAR 011
ENCODING 11
SWIDTH 1080 0
DWIDTH 15 0
BBX 13 11 1 -1
BITMAP
0020
0010
A0A8
0A10
0020
0400
0020
0A10
A0A8
0010
0020
ENDCHAR
STARTCHAR 012
ENCODING 12
SWIDTH 1080 0
DWIDTH 15 0
BBX 14 11 0 -1
BITMAP
0010
0018
F07C
0998
0210
0200
0210
0C98
F07C
0018
0010
ENDCHAR
STARTCHAR 013
ENCODING 13
SWIDTH 144 0
DWIDTH 2 0
BBX 0 0 0 0
BITMAP
ENDCHAR
STARTCHAR 014
ENCODING 14
SWIDTH 1080 0
DWIDTH 15 0
BBX 13 10 0 -1
BITMAP
2AA0
0000
8008
0000
8008
0040
4090
1140
0080
0040
ENDCHAR
STARTCHAR 015
ENCODING 15
SWIDTH 1080 0
DWIDTH 15 0
BBX 13 10 0 -1
BITMAP
3FE0
4010
8008
8008
8008
8048
40D0
39E0
00C0
0040
ENDCHAR
STARTCHAR 016
ENCODING 16
SWIDTH 1080 0
DWIDTH 15 0
BBX 13 10 0 -1
BITMAP
3FE0
4010
8208
8608
8208
8248
40D0
39E0
00C0
0040
ENDCHAR
STARTCHAR 017
ENCODING 17
SWIDTH 864 0
DWIDTH 12 0
BBX 10 11 0 -1
BITMAP
C000
F000
F800
FE00
FF80
FFC0
FF80
FE00
F800
F000
C000
ENDCHAR
STARTCHAR 018
ENCODING 18
SWIDTH 864 0
DWIDTH 12 0
BBX 11 11 0 -1
BITMAP
F1E0
F1E0
F1E0
F1E0
F1E0
F1E0
F1E0
F1E0
F1E0
F1E0
F1E0
ENDCHAR
STARTCHAR 019
ENCODING 19
SWIDTH 864 0
DWIDTH 12 0
BBX 11 11 0 -1
BITMAP
FFE0
FFE0
FFE0
FFE0
FFE0
FFE0
FFE0
FFE0
FFE0
FFE0
FFE0
ENDCHAR
STARTCHAR 020
ENCODING 20
SWIDTH 864 0
DWIDTH 12 0
BBX 11 11 0 -1
BITMAP
C060
C1E0
C3E0
CFE0
FFE0
FFE0
FFE0
CFE0
C3E0
C1E0
C060
ENDCHAR
STARTCHAR 021
ENCODING 21
SWIDTH 864 0
DWIDTH 12 0
BBX 11 11 1 -1
BITMAP
C060
F060
F860
FE60
FFE0
FFE0
FFE0
FE60
F860
F060
C060
ENDCHAR
STARTCHAR 022
ENCODING 22
SWIDTH 1008 0
DWIDTH 14 0
BBX 13 11 0 -1
BITMAP
0600
0700
4780
47C0
97F8
A7F8
97F8
47C0
4780
0700
0600
ENDCHAR
STARTCHAR 023
ENCODING 23
SWIDTH 720 0
DWIDTH 10 0
BBX 9 11 0 -1
BITMAP
6000
7100
7200
6400
4980
1380
2780
4C00
9800
3000
6000
ENDCHAR
STARTCHAR 024
ENCODING 24
SWIDTH 648 0
DWIDTH 9 0
BBX 8 11 0 -1
BITMAP
C0
A0
90
88
87
81
87
88
90
A0
C0
ENDCHAR
STARTCHAR 025
ENCODING 25
SWIDTH 1008 0
DWIDTH 14 0
BBX 13 11 0 -1
BITMAP
0300
0700
0F10
1F10
FF48
FF28
FF48
1F10
0F10
0700
0300
ENDCHAR
STARTCHAR 026
ENCODING 26
SWIDTH 720 0
DWIDTH 10 0
BBX 9 11 0 -1
BITMAP
0300
0600
0C80
1900
F200
E400
C900
1300
2700
4700
0300
ENDCHAR
STARTCHAR 027
ENCODING 27
SWIDTH 648 0
DWIDTH 9 0
BBX 8 11 0 -1
BITMAP
03
05
09
11
E1
81
E1
11
09
05
03
ENDCHAR
STARTCHAR 028
ENCODING 28
SWIDTH 432 0
DWIDTH 6 0
BBX 0 0 0 0
BITMAP
ENDCHAR
STARTCHAR 029
ENCODING 29
SWIDTH 432 0
DWIDTH 6 0
BBX 0 0 0 0
BITMAP
ENDCHAR
STARTCHAR 030
ENCODING 30
SWIDTH 576 0
DWIDTH 8 0
BBX 7 7 0 0
BITMAP
44
CA
4A
4A
4A
4A
E4
ENDCHAR
STARTCHAR 031
ENCODING 31
SWIDTH 864 0
DWIDTH 12 0
BBX 11 7 0 0
BITMAP
4440
CAA0
4AA0
4AA0
4AA0
4AA0
E440
ENDCHAR
STARTCHAR 032
ENCODING 32
SWIDTH 288 0
DWIDTH 4 0
BBX 0 0 0 0
BITMAP
ENDCHAR
STARTCHAR 033
ENCODING 33
SWIDTH 216 0
DWIDTH 3 0
BBX 2 7 0 0
BITMAP
C0
C0
C0
C0
C0
00
C0
ENDCHAR
STARTCHAR 034
ENCODING 34
SWIDTH 432 0
DWIDTH 6 0
BBX 5 3 0 5
BITMAP
D8
D8
D8
ENDCHAR
STARTCHAR 035
ENCODING 35
SWIDTH 576 0
DWIDTH 8 0
BBX 7 6 0 0
BITMAP
6C
FE
6C
7C
FE
6C
ENDCHAR
STARTCHAR 036
ENCODING 36
SWIDTH 576 0
DWIDTH 8 0
BBX 7 11 0 -2
BITMAP
10
38
7C
D6
D0
7C
16
D6
7C
38
10
ENDCHAR
STARTCHAR 037
ENCODING 37
SWIDTH 504 0
DWIDTH 7 0
BBX 6 7 0 0
BITMAP
CC
CC
18
30
60
CC
CC
ENDCHAR
STARTCHAR 038
ENCODING 38
SWIDTH 576 0
DWIDTH 8 0
BBX 7 7 0 0
BITMAP
70
D8
D8
70
DA
CC
76
ENDCHAR
STARTCHAR 039
ENCODING 39
SWIDTH 216 0
DWIDTH 3 0
BBX 2 3 0 5
BITMAP
C0
C0
C0
ENDCHAR
STARTCHAR 040
ENCODING 40
SWIDTH 360 0
DWIDTH 5 0
BBX 4 9 0 -1
BITMAP
30
60
60
C0
C0
C0
60
60
30
ENDCHAR
STARTCHAR 041
ENCODING 41
SWIDTH 360 0
DWIDTH 5 0
BBX 4 9 0 -1
BITMAP
C0
60
60
30
30
30
60
60
C0
ENDCHAR
STARTCHAR 042
ENCODING 42
SWIDTH 648 0
DWIDTH 9 0
BBX 8 7 0 0
BITMAP
18
DB
7E
18
7E
DB
18
ENDCHAR
STARTCHAR 043
ENCODING 43
SWIDTH 504 0
DWIDTH 7 0
BBX 6 5 0 1
BITMAP
30
30
FC
30
30
ENDCHAR
STARTCHAR 044
ENCODING 44
SWIDTH 288 0
DWIDTH 4 0
BBX 3 3 0 -1
BITMAP
60
60
C0
ENDCHAR
STARTCHAR 045
ENCODING 45
SWIDTH 504 0
DWIDTH 7 0
BBX 6 1 0 3
BITMAP
FC
ENDCHAR
STARTCHAR 046
ENCODING 46
SWIDTH 216 0
DWIDTH 3 0
BBX 2 2 0 0
BITMAP
C0
C0
ENDCHAR
STARTCHAR 047
ENCODING 47
SWIDTH 504 0
DWIDTH 7 0
BBX 6 7 0 0
BITMAP
0C
18
18
30
60
60
C0
ENDCHAR
STARTCHAR 048
ENCODING 48
SWIDTH 504 0
DWIDTH 7 0
BBX 6 7 0 0
BITMAP
78
CC
CC
CC
CC
CC
78
ENDCHAR
STARTCHAR 049
ENCODING 49
SWIDTH 504 0
DWIDTH 7 0
BBX 6 7 0 0
BITMAP
30
70
B0
30
30
30
FC
ENDCHAR
STARTCHAR 050
ENCODING 50
SWIDTH 504 0
DWIDTH 7 0
BBX 6 7 0 0
BITMAP
78
CC
0C
18
30
60
FC
ENDCHAR
STARTCHAR 051
ENCODING 51
SWIDTH 504 0
DWIDTH 7 0
BBX 6 7 0 0
BITMAP
FC
0C
18
38
0C
CC
78
ENDCHAR
STARTCHAR 052
ENCODING 52
SWIDTH 504 0
DWIDTH 7 0
BBX 6 7 0 0
BITMAP
18
38
78
D8
FC
18
18
ENDCHAR
STARTCHAR 053
ENCODING 53
SWIDTH 504 0
DWIDTH 7 0
BBX 6 7 0 0
BITMAP
FC
C0
F8
0C
0C
CC
78
ENDCHAR
STARTCHAR 054
ENCODING 54
SWIDTH 504 0
DWIDTH 7 0
BBX 6 7 0 0
BITMAP
38
60
C0
F8
CC
CC
78
ENDCHAR
STARTCHAR 055
ENCODING 55
SWIDTH 504 0
DWIDTH 7 0
BBX 6 7 0 0
BITMAP
FC
0C
18
18
30
30
30
ENDCHAR
STARTCHAR 056
ENCODING 56
SWIDTH 504 0
DWIDTH 7 0
BBX 6 7 0 0
BITMAP
78
CC
CC
78
CC
CC
78
ENDCHAR
STARTCHAR 057
ENCODING 57
SWIDTH 504 0
DWIDTH 7 0
BBX 6 7 0 0
BITMAP
78
CC
CC
7C
0C
18
70
ENDCHAR
STARTCHAR 058
ENCODING 58
SWIDTH 216 0
DWIDTH 3 0
BBX 2 5 0 0
BITMAP
C0
C0
00
C0
C0
ENDCHAR
STARTCHAR 059
ENCODING 59
SWIDTH 288 0
DWIDTH 4 0
BBX 3 6 0 -1
BITMAP
60
60
00
60
60
C0
ENDCHAR
STARTCHAR 060
ENCODING 60
SWIDTH 360 0
DWIDTH 5 0
BBX 4 5 0 1
BITMAP
30
60
C0
60
30
ENDCHAR
STARTCHAR 061
ENCODING 61
SWIDTH 432 0
DWIDTH 6 0
BBX 5 3 0 2
BITMAP
F8
00
F8
ENDCHAR
STARTCHAR 062
ENCODING 62
SWIDTH 360 0
DWIDTH 5 0
BBX 4 5 0 1
BITMAP
C0
60
30
60
C0
ENDCHAR
STARTCHAR 063
ENCODING 63
SWIDTH 504 0
DWIDTH 7 0
BBX 6 7 0 0
BITMAP
78
CC
18
30
30
00
30
ENDCHAR
STARTCHAR 064
ENCODING 64
SWIDTH 576 0
DWIDTH 8 0
BBX 7 7 0 0
BITMAP
7C
C6
DE
D6
DE
C0
7C
ENDCHAR
STARTCHAR 065
ENCODING 65
SWIDTH 504 0
DWIDTH 7 0
BBX 6 7 0 0
BITMAP
78
CC
CC
FC
CC
CC
CC
ENDCHAR
STARTCHAR 066
ENCODING 66
SWIDTH 504 0
DWIDTH 7 0
BBX 6 7 0 0
BITMAP
F8
6C
6C
78
6C
6C
F8
ENDCHAR
STARTCHAR 067
ENCODING 67
SWIDTH 504 0
DWIDTH 7 0
BBX 6 7 0 0
BITMAP
78
CC
C0
C0
C0
CC
78
ENDCHAR
STARTCHAR 068
ENCODING 68
SWIDTH 504 0
DWIDTH 7 0
BBX 6 7 0 0
BITMAP
F8
6C
6C
6C
6C
6C
F8
ENDCHAR
STARTCHAR 069
ENCODING 69
SWIDTH 504 0
DWIDTH 7 0
BBX 6 7 0 0
BITMAP
FC
C0
C0
F8
C0
C0
FC
ENDCHAR
STARTCHAR 070
ENCODING 70
SWIDTH 504 0
DWIDTH 7 0
BBX 6 7 0 0
BITMAP
FC
C0
C0
F8
C0
C0
C0
ENDCHAR
STARTCHAR 071
ENCODING 71
SWIDTH 504 0
DWIDTH 7 0
BBX 6 7 0 0
BITMAP
78
CC
C0
C0
DC
CC
78
ENDCHAR
STARTCHAR 072
ENCODING 72
SWIDTH 504 0
DWIDTH 7 0
BBX 6 7 0 0
BITMAP
CC
CC
CC
FC
CC
CC
CC
ENDCHAR
STARTCHAR 073
ENCODING 73
SWIDTH 360 0
DWIDTH 5 0
BBX 4 7 0 0
BITMAP
F0
60
60
60
60
60
F0
ENDCHAR
STARTCHAR 074
ENCODING 74
SWIDTH 504 0
DWIDTH 7 0
BBX 6 7 0 0
BITMAP
3C
18
18
18
18
D8
70
ENDCHAR
STARTCHAR 075
ENCODING 75
SWIDTH 504 0
DWIDTH 7 0
BBX 6 7 0 0
BITMAP
CC
D8
F0
E0
F0
D8
CC
ENDCHAR
STARTCHAR 076
ENCODING 76
SWIDTH 504 0
DWIDTH 7 0
BBX 6 7 0 0
BITMAP
C0
C0
C0
C0
C0
C0
FC
ENDCHAR
STARTCHAR 077
ENCODING 77
SWIDTH 576 0
DWIDTH 8 0
BBX 7 7 0 0
BITMAP
C6
EE
D6
C6
C6
C6
C6
ENDCHAR
STARTCHAR 078
ENCODING 78
SWIDTH 576 0
DWIDTH 8 0
BBX 7 7 0 0
BITMAP
C6
C6
E6
D6
CE
C6
C6
ENDCHAR
STARTCHAR 079
ENCODING 79
SWIDTH 504 0
DWIDTH 7 0
BBX 6 7 0 0
BITMAP
78
CC
CC
CC
CC
CC
78
ENDCHAR
STARTCHAR 080
ENCODING 80
SWIDTH 504 0
DWIDTH 7 0
BBX 6 7 0 0
BITMAP
F8
CC
CC
F8
C0
C0
C0
ENDCHAR
STARTCHAR 081
ENCODING 81
SWIDTH 504 0
DWIDTH 7 0
BBX 6 7 0 0
BITMAP
78
CC
CC
CC
DC
C8
74
ENDCHAR
STARTCHAR 082
ENCODING 82
SWIDTH 504 0
DWIDTH 7 0
BBX 6 7 0 0
BITMAP
F8
CC
CC
F8
F0
D8
CC
ENDCHAR
STARTCHAR 083
ENCODING 83
SWIDTH 504 0
DWIDTH 7 0
BBX 6 7 0 0
BITMAP
78
CC
C0
78
0C
CC
78
ENDCHAR
STARTCHAR 084
ENCODING 84
SWIDTH 504 0
DWIDTH 7 0
BBX 6 7 0 0
BITMAP
FC
30
30
30
30
30
30
ENDCHAR
STARTCHAR 085
ENCODING 85
SWIDTH 504 0
DWIDTH 7 0
BBX 6 7 0 0
BITMAP
CC
CC
CC
CC
CC
CC
78
ENDCHAR
STARTCHAR 086
ENCODING 86
SWIDTH 504 0
DWIDTH 7 0
BBX 6 7 0 0
BITMAP
CC
CC
CC
CC
78
78
30
ENDCHAR
STARTCHAR 087
ENCODING 87
SWIDTH 576 0
DWIDTH 8 0
BBX 7 7 0 0
BITMAP
C6
C6
C6
C6
D6
D6
6C
ENDCHAR
STARTCHAR 088
ENCODING 88
SWIDTH 504 0
DWIDTH 7 0
BBX 6 7 0 0
BITMAP
CC
CC
78
30
78
CC
CC
ENDCHAR
STARTCHAR 089
ENCODING 89
SWIDTH 504 0
DWIDTH 7 0
BBX 6 7 0 0
BITMAP
CC
CC
78
30
30
30
30
ENDCHAR
STARTCHAR 090
ENCODING 90
SWIDTH 504 0
DWIDTH 7 0
BBX 6 7 0 0
BITMAP
FC
0C
18
30
60
C0
FC
ENDCHAR
STARTCHAR 091
ENCODING 91
SWIDTH 360 0
DWIDTH 5 0
BBX 4 9 0 -1
BITMAP
F0
C0
C0
C0
C0
C0
C0
C0
F0
ENDCHAR
STARTCHAR 092
ENCODING 92
SWIDTH 504 0
DWIDTH 7 0
BBX 6 7 0 0
BITMAP
C0
60
60
30
18
18
0C
ENDCHAR
STARTCHAR 093
ENCODING 93
SWIDTH 360 0
DWIDTH 5 0
BBX 4 9 0 -1
BITMAP
F0
30
30
30
30
30
30
30
F0
ENDCHAR
STARTCHAR 094
ENCODING 94
SWIDTH 504 0
DWIDTH 7 0
BBX 6 3 0 5
BITMAP
30
78
CC
ENDCHAR
STARTCHAR 095
ENCODING 95
SWIDTH 504 0
DWIDTH 7 0
BBX 6 1 0 -2
BITMAP
FC
ENDCHAR
STARTCHAR 096
ENCODING 96
SWIDTH 360 0
DWIDTH 5 0
BBX 4 3 0 5
BITMAP
C0
60
30
ENDCHAR
STARTCHAR 097
ENCODING 97
SWIDTH 504 0
DWIDTH 7 0
BBX 6 5 0 0
BITMAP
78
0C
7C
CC
7C
ENDCHAR
STARTCHAR 098
ENCODING 98
SWIDTH 504 0
DWIDTH 7 0
BBX 6 7 0 0
BITMAP
C0
C0
F8
CC
CC
CC
F8
ENDCHAR
STARTCHAR 099
ENCODING 99
SWIDTH 504 0
DWIDTH 7 0
BBX 6 5 0 0
BITMAP
78
CC
C0
CC
78
ENDCHAR
STARTCHAR 100
ENCODING 100
SWIDTH 504 0
DWIDTH 7 0
BBX 6 7 0 0
BITMAP
0C
0C
7C
CC
CC
CC
7C
ENDCHAR
STARTCHAR 101
ENCODING 101
SWIDTH 504 0
DWIDTH 7 0
BBX 6 5 0 0
BITMAP
78
CC
F8
C0
78
ENDCHAR
STARTCHAR 102
ENCODING 102
SWIDTH 504 0
DWIDTH 7 0
BBX 6 7 0 0
BITMAP
38
6C
60
F0
60
60
60
ENDCHAR
STARTCHAR 103
ENCODING 103
SWIDTH 504 0
DWIDTH 7 0
BBX 6 7 0 -2
BITMAP
78
CC
CC
CC
7C
0C
78
ENDCHAR
STARTCHAR 104
ENCODING 104
SWIDTH 504 0
DWIDTH 7 0
BBX 6 7 0 0
BITMAP
C0
C0
F8
CC
CC
CC
CC
ENDCHAR
STARTCHAR 105
ENCODING 105
SWIDTH 360 0
DWIDTH 5 0
BBX 4 7 0 0
BITMAP
60
00
E0
60
60
60
F0
ENDCHAR
STARTCHAR 106
ENCODING 106
SWIDTH 432 0
DWIDTH 6 0
BBX 5 9 0 -2
BITMAP
18
00
38
18
18
18
18
D8
70
ENDCHAR
STARTCHAR 107
ENCODING 107
SWIDTH 504 0
DWIDTH 7 0
BBX 6 7 0 0
BITMAP
C0
C0
CC
D8
F0
D8
CC
ENDCHAR
STARTCHAR 108
ENCODING 108
SWIDTH 360 0
DWIDTH 5 0
BBX 4 7 0 0
BITMAP
E0
60
60
60
60
60
F0
ENDCHAR
STARTCHAR 109
ENCODING 109
SWIDTH 576 0
DWIDTH 8 0
BBX 7 5 0 0
BITMAP
E8
D6
D6
D6
D6
ENDCHAR
STARTCHAR 110
ENCODING 110
SWIDTH 504 0
DWIDTH 7 0
BBX 6 5 0 0
BITMAP
D8
EC
CC
CC
CC
ENDCHAR
STARTCHAR 111
ENCODING 111
SWIDTH 504 0
DWIDTH 7 0
BBX 6 5 0 0
BITMAP
78
CC
CC
CC
78
ENDCHAR
STARTCHAR 112
ENCODING 112
SWIDTH 504 0
DWIDTH 7 0
BBX 6 7 0 -2
BITMAP
F8
CC
CC
CC
F8
C0
C0
ENDCHAR
STARTCHAR 113
ENCODING 113
SWIDTH 504 0
DWIDTH 7 0
BBX 6 7 0 -2
BITMAP
7C
CC
CC
CC
7C
0C
0C
ENDCHAR
STARTCHAR 114
ENCODING 114
SWIDTH 504 0
DWIDTH 7 0
BBX 6 5 0 0
BITMAP
F8
EC
C0
C0
C0
ENDCHAR
STARTCHAR 115
ENCODING 115
SWIDTH 504 0
DWIDTH 7 0
BBX 6 5 0 0
BITMAP
7C
C0
78
0C
F8
ENDCHAR
STARTCHAR 116
ENCODING 116
SWIDTH 504 0
DWIDTH 7 0
BBX 6 7 0 0
BITMAP
30
30
FC
30
30
30
1C
ENDCHAR
STARTCHAR 117
ENCODING 117
SWIDTH 504 0
DWIDTH 7 0
BBX 6 5 0 0
BITMAP
CC
CC
CC
DC
6C
ENDCHAR
STARTCHAR 118
ENCODING 118
SWIDTH 504 0
DWIDTH 7 0
BBX 6 5 0 0
BITMAP
CC
CC
CC
78
30
ENDCHAR
STARTCHAR 119
ENCODING 119
SWIDTH 576 0
DWIDTH 8 0
BBX 7 5 0 0
BITMAP
C6
C6
D6
D6
6C
ENDCHAR
STARTCHAR 120
ENCODING 120
SWIDTH 504 0
DWIDTH 7 0
BBX 6 5 0 0
BITMAP
CC
78
30
78
CC
ENDCHAR
STARTCHAR 121
ENCODING 121
SWIDTH 504 0
DWIDTH 7 0
BBX 6 7 0 -2
BITMAP
CC
CC
CC
78
30
60
C0
ENDCHAR
STARTCHAR 122
ENCODING 122
SWIDTH 504 0
DWIDTH 7 0
BBX 6 5 0 0
BITMAP
FC
18
30
60
FC
ENDCHAR
STARTCHAR 123
ENCODING 123
SWIDTH 360 0
DWIDTH 5 0
BBX 4 9 0 -1
BITMAP
30
60
60
60
C0
60
60
60
30
ENDCHAR
STARTCHAR 124
ENCODING 124
SWIDTH 216 0
DWIDTH 3 0
BBX 2 9 0 -1
BITMAP
C0
C0
C0
C0
C0
C0
C0
C0
C0
ENDCHAR
STARTCHAR 125
ENCODING 125
SWIDTH 360 0
DWIDTH 5 0
BBX 4 9 0 -1
BITMAP
C0
60
60
60
30
60
60
60
C0
ENDCHAR
STARTCHAR 126
ENCODING 126
SWIDTH 504 0
DWIDTH 7 0
BBX 6 3 0 2
BITMAP
6C
FC
D8
ENDCHAR
STARTCHAR 127
ENCODING 127
SWIDTH 144 0
DWIDTH 2 0
BBX 0 0 0 0
BITMAP
ENDCHAR
STARTCHAR 128
ENCODING 128
SWIDTH 864 0
DWIDTH 12 0
BBX 11 11 0 -1
BITMAP
5540
8020
1500
A0A0
0400
AAA0
0400
A0A0
1500
8020
5540
ENDCHAR
STARTCHAR 129
ENCODING 129
SWIDTH 864 0
DWIDTH 12 0
BBX 11 11 0 -1
BITMAP
7FC0
8020
9F20
B1A0
A4A0
AAA0
A4A0
B1A0
9F20
8020
7FC0
ENDCHAR
STARTCHAR 130
ENCODING 130
SWIDTH 576 0
DWIDTH 8 0
BBX 7 12 0 -2
BITMAP
10
28
48
50
20
5C
92
AC
88
74
04
38
ENDCHAR
STARTCHAR 131
ENCODING 131
SWIDTH 648 0
DWIDTH 9 0
BBX 8 9 0 -1
BITMAP
70
98
8C
ED
6C
0D
08
10
60
ENDCHAR
STARTCHAR 132
ENCODING 132
SWIDTH 936 0
DWIDTH 13 0
BBX 12 7 0 1
BITMAP
C030
E070
F9F0
F9F0
F9F0
E070
C030
ENDCHAR
STARTCHAR 133
ENCODING 133
SWIDTH 432 0
DWIDTH 6 0
BBX 5 1 0 0
BITMAP
A8
ENDCHAR
STARTCHAR 134
ENCODING 134
SWIDTH 1080 0
DWIDTH 15 0
BBX 0 0 0 0
BITMAP
ENDCHAR
STARTCHAR 135
ENCODING 135
SWIDTH 1224 0
DWIDTH 17 0
BBX 0 0 0 0
BITMAP
ENDCHAR
STARTCHAR 136
ENCODING 136
SWIDTH 144 0
DWIDTH 2 0
BBX 0 0 0 0
BITMAP
ENDCHAR
STARTCHAR 137
ENCODING 137
SWIDTH 936 0
DWIDTH 13 0
BBX 0 0 0 0
BITMAP
ENDCHAR
STARTCHAR 138
ENCODING 138
SWIDTH 1080 0
DWIDTH 15 0
BBX 0 0 0 0
BITMAP
ENDCHAR
STARTCHAR 139
ENCODING 139
SWIDTH 1080 0
DWIDTH 15 0
BBX 0 0 0 0
BITMAP
ENDCHAR
STARTCHAR 140
ENCODING 140
SWIDTH 1080 0
DWIDTH 15 0
BBX 0 0 0 0
BITMAP
ENDCHAR
STARTCHAR 141
ENCODING 141
SWIDTH 1080 0
DWIDTH 15 0
BBX 0 0 0 0
BITMAP
ENDCHAR
STARTCHAR 142
ENCODING 142
SWIDTH 1080 0
DWIDTH 15 0
BBX 0 0 0 0
BITMAP
ENDCHAR
STARTCHAR 143
ENCODING 143
SWIDTH 144 0
DWIDTH 2 0
BBX 0 0 0 0
BITMAP
ENDCHAR
STARTCHAR 144
ENCODING 144
SWIDTH 576 0
DWIDTH 8 0
BBX 0 0 0 0
BITMAP
ENDCHAR
STARTCHAR 145
ENCODING 145
SWIDTH 792 0
DWIDTH 11 0
BBX 0 0 0 0
BITMAP
ENDCHAR
STARTCHAR 146
ENCODING 146
SWIDTH 1008 0
DWIDTH 14 0
BBX 0 0 0 0
BITMAP
ENDCHAR
STARTCHAR 147
ENCODING 147
SWIDTH 1008 0
DWIDTH 14 0
BBX 0 0 0 0
BITMAP
ENDCHAR
STARTCHAR 148
ENCODING 148
SWIDTH 720 0
DWIDTH 10 0
BBX 0 0 0 0
BITMAP
ENDCHAR
STARTCHAR 149
ENCODING 149
SWIDTH 432 0
DWIDTH 6 0
BBX 0 0 0 0
BITMAP
ENDCHAR
STARTCHAR 150
ENCODING 150
SWIDTH 1008 0
DWIDTH 14 0
BBX 0 0 0 0
BITMAP
ENDCHAR
STARTCHAR 151
ENCODING 151
SWIDTH 936 0
DWIDTH 13 0
BBX 0 0 0 0
BITMAP
ENDCHAR
STARTCHAR 152
ENCODING 152
SWIDTH 864 0
DWIDTH 12 0
BBX 0 0 0 0
BITMAP
ENDCHAR
STARTCHAR 153
ENCODING 153
SWIDTH 864 0
DWIDTH 12 0
BBX 0 0 0 0
BITMAP
ENDCHAR
STARTCHAR 154
ENCODING 154
SWIDTH 864 0
DWIDTH 12 0
BBX 0 0 0 0
BITMAP
ENDCHAR
STARTCHAR 155
ENCODING 155
SWIDTH 864 0
DWIDTH 12 0
BBX 0 0 0 0
BITMAP
ENDCHAR
STARTCHAR 156
ENCODING 156
SWIDTH 1080 0
DWIDTH 15 0
BBX 0 0 0 0
BITMAP
ENDCHAR
STARTCHAR 157
ENCODING 157
SWIDTH 1080 0
DWIDTH 15 0
BBX 0 0 0 0
BITMAP
ENDCHAR
STARTCHAR 158
ENCODING 158
SWIDTH 792 0
DWIDTH 11 0
BBX 0 0 0 0
BITMAP
ENDCHAR
STARTCHAR 159
ENCODING 159
SWIDTH 144 0
DWIDTH 2 0
BBX 0 0 0 0
BITMAP
ENDCHAR
STARTCHAR 160
ENCODING 160
SWIDTH 504 0
DWIDTH 7 0
BBX 0 0 0 0
BITMAP
ENDCHAR
STARTCHAR 161
ENCODING 161
SWIDTH 216 0
DWIDTH 3 0
BBX 2 7 0 0
BITMAP
C0
00
C0
C0
C0
C0
C0
ENDCHAR
STARTCHAR 162
ENCODING 162
SWIDTH 504 0
DWIDTH 7 0
BBX 6 7 0 -1
BITMAP
10
78
D4
D0
D4
78
10
ENDCHAR
STARTCHAR 163
ENCODING 163
SWIDTH 504 0
DWIDTH 7 0
BBX 6 7 0 0
BITMAP
38
6C
60
F0
60
6C
F8
ENDCHAR
STARTCHAR 164
ENCODING 164
SWIDTH 504 0
DWIDTH 7 0
BBX 6 5 0 0
BITMAP
B4
78
CC
78
B4
ENDCHAR
STARTCHAR 165
ENCODING 165
SWIDTH 504 0
DWIDTH 7 0
BBX 6 7 0 0
BITMAP
CC
78
FC
30
FC
30
30
ENDCHAR
STARTCHAR 166
ENCODING 166
SWIDTH 216 0
DWIDTH 3 0
BBX 2 7 0 0
BITMAP
C0
C0
C0
00
C0
C0
C0
ENDCHAR
STARTCHAR 167
ENCODING 167
SWIDTH 432 0
DWIDTH 6 0
BBX 5 8 0 0
BITMAP
78
C0
70
D8
D8
70
18
F0
ENDCHAR
STARTCHAR 168
ENCODING 168
SWIDTH 360 0
DWIDTH 5 0
BBX 4 1 0 7
BITMAP
F0
ENDCHAR
STARTCHAR 169
ENCODING 169
SWIDTH 648 0
DWIDTH 9 0
BBX 8 7 0 0
BITMAP
7E
C3
CB
D3
CB
C3
7E
ENDCHAR
STARTCHAR 170
ENCODING 170
SWIDTH 432 0
DWIDTH 6 0
BBX 5 5 0 4
BITMAP
78
D8
78
00
F8
ENDCHAR
STARTCHAR 171
ENCODING 171
SWIDTH 576 0
DWIDTH 8 0
BBX 7 5 0 0
BITMAP
36
6C
D8
6C
36
ENDCHAR
STARTCHAR 172
ENCODING 172
SWIDTH 504 0
DWIDTH 7 0
BBX 6 3 0 1
BITMAP
FC
0C
0C
ENDCHAR
STARTCHAR 173
ENCODING 173
SWIDTH 288 0
DWIDTH 4 0
BBX 3 1 0 3
BITMAP
E0
ENDCHAR
STARTCHAR 174
ENCODING 174
SWIDTH 648 0
DWIDTH 9 0
BBX 8 7 0 0
BITMAP
7E
C3
DB
D3
D3
C3
7E
ENDCHAR
STARTCHAR 175
ENCODING 175
SWIDTH 504 0
DWIDTH 7 0
BBX 6 1 0 7
BITMAP
FC
ENDCHAR
STARTCHAR 176
ENCODING 176
SWIDTH 432 0
DWIDTH 6 0
BBX 5 4 0 5
BITMAP
70
D8
D8
70
ENDCHAR
STARTCHAR 177
ENCODING 177
SWIDTH 504 0
DWIDTH 7 0
BBX 6 7 0 0
BITMAP
30
30
FC
30
30
00
FC
ENDCHAR
STARTCHAR 178
ENCODING 178
SWIDTH 360 0
DWIDTH 5 0
BBX 4 5 0 5
BITMAP
60
F0
30
60
F0
ENDCHAR
STARTCHAR 179
ENCODING 179
SWIDTH 360 0
DWIDTH 5 0
BBX 4 5 0 5
BITMAP
E0
30
60
30
E0
ENDCHAR
STARTCHAR 180
ENCODING 180
SWIDTH 360 0
DWIDTH 5 0
BBX 4 3 0 5
BITMAP
30
60
C0
ENDCHAR
STARTCHAR 181
ENCODING 181
SWIDTH 504 0
DWIDTH 7 0
BBX 6 7 0 -2
BITMAP
CC
CC
CC
DC
F4
C0
C0
ENDCHAR
STARTCHAR 182
ENCODING 182
SWIDTH 504 0
DWIDTH 7 0
BBX 6 8 0 0
BITMAP
7C
F4
B4
F4
74
34
34
34
ENDCHAR
STARTCHAR 183
ENCODING 183
SWIDTH 288 0
DWIDTH 4 0
BBX 3 2 0 3
BITMAP
E0
E0
ENDCHAR
STARTCHAR 184
ENCODING 184
SWIDTH 360 0
DWIDTH 5 0
BBX 4 2 0 -2
BITMAP
30
E0
ENDCHAR
STARTCHAR 185
ENCODING 185
SWIDTH 360 0
DWIDTH 5 0
BBX 4 5 0 5
BITMAP
60
E0
60
60
F0
ENDCHAR
STARTCHAR 186
ENCODING 186
SWIDTH 360 0
DWIDTH 5 0
BBX 4 5 0 5
BITMAP
E0
30
60
C0
F0
ENDCHAR
STARTCHAR 187
ENCODING 187
SWIDTH 576 0
DWIDTH 8 0
BBX 7 5 0 0
BITMAP
D8
6C
36
6C
D8
ENDCHAR
STARTCHAR 188
ENCODING 188
SWIDTH 576 0
DWIDTH 8 0
BBX 7 10 0 0
BITMAP
60
E0
60
60
6C
1C
2C
3E
0C
0C
ENDCHAR
STARTCHAR 189
ENCODING 189
SWIDTH 576 0
DWIDTH 8 0
BBX 7 10 0 0
BITMAP
60
E0
60
60
6C
16
06
0C
18
1E
ENDCHAR
STARTCHAR 190
ENCODING 190
SWIDTH 576 0
DWIDTH 8 0
BBX 7 10 0 0
BITMAP
E0
30
60
30
EC
1C
2C
3E
0C
0C
ENDCHAR
STARTCHAR 191
ENCODING 191
SWIDTH 504 0
DWIDTH 7 0
BBX 6 7 0 0
BITMAP
30
00
30
30
60
CC
78
ENDCHAR
STARTCHAR 192
ENCODING 192
SWIDTH 504 0
DWIDTH 7 0
BBX 6 10 0 0
BITMAP
60
30
00
78
CC
CC
FC
CC
CC
CC
ENDCHAR
STARTCHAR 193
ENCODING 193
SWIDTH 504 0
DWIDTH 7 0
BBX 6 10 0 0
BITMAP
18
30
00
78
CC
CC
FC
CC
CC
CC
ENDCHAR
STARTCHAR 194
ENCODING 194
SWIDTH 504 0
DWIDTH 7 0
BBX 6 10 0 0
BITMAP
30
48
00
78
CC
CC
FC
CC
CC
CC
ENDCHAR
STARTCHAR 195
ENCODING 195
SWIDTH 504 0
DWIDTH 7 0
BBX 6 10 0 0
BITMAP
64
98
00
78
CC
CC
FC
CC
CC
CC
ENDCHAR
STARTCHAR 196
ENCODING 196
SWIDTH 504 0
DWIDTH 7 0
BBX 6 9 0 0
BITMAP
48
00
78
CC
CC
FC
CC
CC
CC
ENDCHAR
STARTCHAR 197
ENCODING 197
SWIDTH 504 0
DWIDTH 7 0
BBX 6 10 0 0
BITMAP
30
48
30
78
CC
CC
FC
CC
CC
CC
ENDCHAR
STARTCHAR 198
ENCODING 198
SWIDTH 576 0
DWIDTH 8 0
BBX 7 7 0 0
BITMAP
7E
D8
D8
FC
D8
D8
DE
ENDCHAR
STARTCHAR 199
ENCODING 199
SWIDTH 504 0
DWIDTH 7 0
BBX 6 9 0 -2
BITMAP
78
CC
C0
C0
C0
CC
78
18
70
ENDCHAR
STARTCHAR 200
ENCODING 200
SWIDTH 504 0
DWIDTH 7 0
BBX 6 10 0 0
BITMAP
60
30
00
FC
C0
C0
F8
C0
C0
FC
ENDCHAR
STARTCHAR 201
ENCODING 201
SWIDTH 504 0
DWIDTH 7 0
BBX 6 10 0 0
BITMAP
18
30
00
FC
C0
C0
F8
C0
C0
FC
ENDCHAR
STARTCHAR 202
ENCODING 202
SWIDTH 504 0
DWIDTH 7 0
BBX 6 10 0 0
BITMAP
30
48
00
FC
C0
C0
F8
C0
C0
FC
ENDCHAR
STARTCHAR 203
ENCODING 203
SWIDTH 504 0
DWIDTH 7 0
BBX 6 9 0 0
BITMAP
78
00
FC
C0
C0
F8
C0
C0
FC
ENDCHAR
STARTCHAR 204
ENCODING 204
SWIDTH 360 0
DWIDTH 5 0
BBX 4 10 0 0
BITMAP
C0
60
00
F0
60
60
60
60
60
F0
ENDCHAR
STARTCHAR 205
ENCODING 205
SWIDTH 360 0
DWIDTH 5 0
BBX 4 10 0 0
BITMAP
30
60
00
F0
60
60
60
60
60
F0
ENDCHAR
STARTCHAR 206
ENCODING 206
SWIDTH 360 0
DWIDTH 5 0
BBX 4 10 0 0
BITMAP
60
90
00
F0
60
60
60
60
60
F0
ENDCHAR
STARTCHAR 207
ENCODING 207
SWIDTH 360 0
DWIDTH 5 0
BBX 4 9 0 0
BITMAP
90
00
F0
60
60
60
60
60
F0
ENDCHAR
STARTCHAR 208
ENCODING 208
SWIDTH 576 0
DWIDTH 8 0
BBX 7 7 0 0
BITMAP
7C
6E
66
F6
66
6E
7C
ENDCHAR
STARTCHAR 209
ENCODING 209
SWIDTH 504 0
DWIDTH 7 0
BBX 6 10 0 0
BITMAP
6C
B8
00
CC
CC
EC
FC
DC
CC
CC
ENDCHAR
STARTCHAR 210
ENCODING 210
SWIDTH 504 0
DWIDTH 7 0
BBX 6 10 0 0
BITMAP
60
30
00
78
CC
CC
CC
CC
CC
78
ENDCHAR
STARTCHAR 211
ENCODING 211
SWIDTH 504 0
DWIDTH 7 0
BBX 6 10 0 0
BITMAP
18
30
00
78
CC
CC
CC
CC
CC
78
ENDCHAR
STARTCHAR 212
ENCODING 212
SWIDTH 504 0
DWIDTH 7 0
BBX 6 10 0 0
BITMAP
30
48
00
78
CC
CC
CC
CC
CC
78
ENDCHAR
STARTCHAR 213
ENCODING 213
SWIDTH 504 0
DWIDTH 7 0
BBX 6 10 0 0
BITMAP
64
98
00
78
CC
CC
CC
CC
CC
78
ENDCHAR
STARTCHAR 214
ENCODING 214
SWIDTH 504 0
DWIDTH 7 0
BBX 6 9 0 0
BITMAP
48
00
78
CC
CC
CC
CC
CC
78
ENDCHAR
STARTCHAR 215
ENCODING 215
SWIDTH 504 0
DWIDTH 7 0
BBX 6 5 0 1
BITMAP
CC
78
30
78
CC
ENDCHAR
STARTCHAR 216
ENCODING 216
SWIDTH 576 0
DWIDTH 8 0
BBX 7 9 0 -1
BITMAP
06
7C
CE
D6
D6
D6
E6
78
C0
ENDCHAR
STARTCHAR 217
ENCODING 217
SWIDTH 504 0
DWIDTH 7 0
BBX 6 10 0 0
BITMAP
60
30
00
CC
CC
CC
CC
CC
CC
78
ENDCHAR
STARTCHAR 218
ENCODING 218
SWIDTH 504 0
DWIDTH 7 0
BBX 6 10 0 0
BITMAP
18
30
00
CC
CC
CC
CC
CC
CC
78
ENDCHAR
STARTCHAR 219
ENCODING 219
SWIDTH 504 0
DWIDTH 7 0
BBX 6 10 0 0
BITMAP
30
48
00
CC
CC
CC
CC
CC
CC
78
ENDCHAR
STARTCHAR 220
ENCODING 220
SWIDTH 504 0
DWIDTH 7 0
BBX 6 9 0 0
BITMAP
48
00
CC
CC
CC
CC
CC
CC
78
ENDCHAR
STARTCHAR 221
ENCODING 221
SWIDTH 504 0
DWIDTH 7 0
BBX 6 10 0 0
BITMAP
18
30
00
CC
CC
78
30
30
30
30
ENDCHAR
STARTCHAR 222
ENCODING 222
SWIDTH 432 0
DWIDTH 6 0
BBX 5 7 0 0
BITMAP
C0
F0
D8
D8
D8
F0
C0
ENDCHAR
STARTCHAR 223
ENCODING 223
SWIDTH 576 0
DWIDTH 8 0
BBX 7 7 0 0
BITMAP
7C
C6
CC
D8
CC
C6
DC
ENDCHAR
STARTCHAR 224
ENCODING 224
SWIDTH 504 0
DWIDTH 7 0
BBX 6 8 0 0
BITMAP
60
30
00
78
0C
7C
CC
7C
ENDCHAR
STARTCHAR 225
ENCODING 225
SWIDTH 504 0
DWIDTH 7 0
BBX 6 8 0 0
BITMAP
18
30
00
78
0C
7C
CC
7C
ENDCHAR
STARTCHAR 226
ENCODING 226
SWIDTH 504 0
DWIDTH 7 0
BBX 6 8 0 0
BITMAP
30
48
00
78
0C
7C
CC
7C
ENDCHAR
STARTCHAR 227
ENCODING 227
SWIDTH 504 0
DWIDTH 7 0
BBX 6 8 0 0
BITMAP
64
98
00
78
0C
7C
CC
7C
ENDCHAR
STARTCHAR 228
ENCODING 228
SWIDTH 504 0
DWIDTH 7 0
BBX 6 7 0 0
BITMAP
48
00
78
0C
7C
CC
7C
ENDCHAR
STARTCHAR 229
ENCODING 229
SWIDTH 504 0
DWIDTH 7 0
BBX 6 8 0 0
BITMAP
30
48
30
78
0C
7C
CC
7C
ENDCHAR
STARTCHAR 230
ENCODING 230
SWIDTH 648 0
DWIDTH 9 0
BBX 8 5 0 0
BITMAP
7E
1B
7E
D8
7E
ENDCHAR
STARTCHAR 231
ENCODING 231
SWIDTH 504 0
DWIDTH 7 0
BBX 6 7 0 -2
BITMAP
78
CC
C0
CC
78
18
70
ENDCHAR
STARTCHAR 232
ENCODING 232
SWIDTH 504 0
DWIDTH 7 0
BBX 6 8 0 0
BITMAP
60
30
00
78
CC
F8
C0
78
ENDCHAR
STARTCHAR 233
ENCODING 233
SWIDTH 504 0
DWIDTH 7 0
BBX 6 8 0 0
BITMAP
18
30
00
78
CC
F8
C0
78
ENDCHAR
STARTCHAR 234
ENCODING 234
SWIDTH 504 0
DWIDTH 7 0
BBX 6 8 0 0
BITMAP
30
48
00
78
CC
F8
C0
78
ENDCHAR
STARTCHAR 235
ENCODING 235
SWIDTH 504 0
DWIDTH 7 0
BBX 6 7 0 0
BITMAP
48
00
78
CC
F8
C0
78
ENDCHAR
STARTCHAR 236
ENCODING 236
SWIDTH 360 0
DWIDTH 5 0
BBX 4 8 0 0
BITMAP
C0
60
00
E0
60
60
60
F0
ENDCHAR
STARTCHAR 237
ENCODING 237
SWIDTH 360 0
DWIDTH 5 0
BBX 4 8 0 0
BITMAP
30
60
00
E0
60
60
60
F0
ENDCHAR
STARTCHAR 238
ENCODING 238
SWIDTH 360 0
DWIDTH 5 0
BBX 4 8 0 0
BITMAP
60
90
00
E0
60
60
60
F0
ENDCHAR
STARTCHAR 239
ENCODING 239
SWIDTH 360 0
DWIDTH 5 0
BBX 4 7 0 0
BITMAP
90
00
E0
60
60
60
F0
ENDCHAR
STARTCHAR 240
ENCODING 240
SWIDTH 504 0
DWIDTH 7 0
BBX 6 9 0 0
BITMAP
68
30
58
0C
7C
CC
CC
CC
78
ENDCHAR
STARTCHAR 241
ENCODING 241
SWIDTH 504 0
DWIDTH 7 0
BBX 6 8 0 0
BITMAP
64
98
00
F8
EC
CC
CC
CC
ENDCHAR
STARTCHAR 242
ENCODING 242
SWIDTH 504 0
DWIDTH 7 0
BBX 6 8 0 0
BITMAP
60
30
00
78
CC
CC
CC
78
ENDCHAR
STARTCHAR 243
ENCODING 243
SWIDTH 504 0
DWIDTH 7 0
BBX 6 8 0 0
BITMAP
18
30
00
78
CC
CC
CC
78
ENDCHAR
STARTCHAR 244
ENCODING 244
SWIDTH 504 0
DWIDTH 7 0
BBX 6 8 0 0
BITMAP
30
48
00
78
CC
CC
CC
78
ENDCHAR
STARTCHAR 245
ENCODING 245
SWIDTH 504 0
DWIDTH 7 0
BBX 6 8 0 0
BITMAP
64
98
00
78
CC
CC
CC
78
ENDCHAR
STARTCHAR 246
ENCODING 246
SWIDTH 504 0
DWIDTH 7 0
BBX 6 7 0 0
BITMAP
48
00
78
CC
CC
CC
78
ENDCHAR
STARTCHAR 247
ENCODING 247
SWIDTH 504 0
DWIDTH 7 0
BBX 6 5 0 1
BITMAP
30
00
FC
00
30
ENDCHAR
STARTCHAR 248
ENCODING 248
SWIDTH 576 0
DWIDTH 8 0
BBX 7 7 0 -1
BITMAP
02
7C
CE
D6
E6
7C
80
ENDCHAR
STARTCHAR 249
ENCODING 249
SWIDTH 504 0
DWIDTH 7 0
BBX 6 8 0 0
BITMAP
60
30
00
CC
CC
CC
CC
78
ENDCHAR
STARTCHAR 250
ENCODING 250
SWIDTH 504 0
DWIDTH 7 0
BBX 6 8 0 0
BITMAP
18
30
00
CC
CC
CC
CC
78
ENDCHAR
STARTCHAR 251
ENCODING 251
SWIDTH 504 0
DWIDTH 7 0
BBX 6 8 0 0
BITMAP
30
48
00
CC
CC
CC
CC
78
ENDCHAR
STARTCHAR 252
ENCODING 252
SWIDTH 504 0
DWIDTH 7 0
BBX 6 7 0 0
BITMAP
48
00
CC
CC
CC
CC
78
ENDCHAR
STARTCHAR 253
ENCODING 253
SWIDTH 504 0
DWIDTH 7 0
BBX 6 10 0 -2
BITMAP
18
30
00
CC
CC
CC
78
30
60
C0
ENDCHAR
STARTCHAR 254
ENCODING 254
SWIDTH 504 0
DWIDTH 7 0
BBX 6 9 0 -2
BITMAP
C0
C0
F8
CC
CC
CC
F8
C0
C0
ENDCHAR
STARTCHAR 255
ENCODING 255
SWIDTH 504 0
DWIDTH 7 0
BBX 6 9 0 -2
BITMAP
48
00
CC
CC
CC
78
30
60
C0
ENDCHAR
ENDFONT
